<svg width="74" height="74" viewBox="0 0 74 74" fill="none" xmlns="http://www.w3.org/2000/svg">
<rect width="74" height="74" rx="12" fill="#FF7F31"/>
<path d="M55.4999 35.9723C55.507 38.6853 54.8731 41.3617 53.6499 43.7834C52.1996 46.6853 49.97 49.1261 47.2108 50.8324C44.4517 52.5387 41.2719 53.4432 38.0277 53.4444C35.3147 53.4515 32.6383 52.8176 30.2166 51.5945L18.5 55.5L22.4055 43.7834C21.1824 41.3617 20.5485 38.6853 20.5556 35.9723C20.5568 32.7281 21.4613 29.5483 23.1676 26.7892C24.8739 24.03 27.3147 21.8004 30.2166 20.3501C32.6383 19.1269 35.3147 18.493 38.0277 18.5001H39.0555C43.34 18.7364 47.3868 20.5448 50.421 23.579C53.4552 26.6132 55.2636 30.66 55.4999 34.9445V35.9723Z" fill="white"/>
<circle cx="31.9141" cy="36.5376" r="2.3125" fill="#FF7F31"/>
<circle cx="38.3867" cy="36.5376" r="2.3125" fill="#FF7F31"/>
<circle cx="44.8633" cy="36.5376" r="2.3125" fill="#FF7F31"/>
</svg>
