<svg width="80" height="80" viewBox="0 0 80 80" fill="none" xmlns="http://www.w3.org/2000/svg">
<rect width="80" height="80" rx="12" fill="#272662"/>
<path d="M59.9999 38.8889C60.0076 41.822 59.3223 44.7153 57.9999 47.3334C56.432 50.4706 54.0216 53.1093 51.0387 54.954C48.0558 56.7986 44.6183 57.7764 41.1111 57.7778C38.178 57.7854 35.2847 57.1002 32.6666 55.7778L20 60L24.2222 47.3334C22.8998 44.7153 22.2146 41.822 22.2222 38.8889C22.2236 35.3817 23.2014 31.9442 25.046 28.9613C26.8907 25.9784 29.5294 23.568 32.6666 22.0001C35.2847 20.6777 38.178 19.9924 41.1111 20.0001H42.2222C46.8541 20.2556 51.2289 22.2106 54.5091 25.4909C57.7894 28.7711 59.7444 33.1459 59.9999 37.7778V38.8889Z" fill="white"/>
<circle cx="34.5" cy="39.5" r="2.5" fill="#272662"/>
<circle cx="41.5" cy="39.5" r="2.5" fill="#272662"/>
<circle cx="48.5" cy="39.5" r="2.5" fill="#272662"/>
</svg>
