<svg width="24" height="24" viewBox="0 0 24 24" fill="none" xmlns="http://www.w3.org/2000/svg">
<path d="M13.7246 12.1354C13.7067 12.1185 13.6924 12.0982 13.6826 12.0756C13.6728 12.0531 13.6678 12.0287 13.6678 12.0041C13.6678 11.9795 13.6728 11.9552 13.6826 11.9326C13.6924 11.9101 13.7067 11.8898 13.7246 11.8729L20.6679 4.92208C20.7731 4.81816 20.8566 4.6944 20.9136 4.55796C20.9706 4.42153 21 4.27513 21 4.12727C21 3.9794 20.9706 3.83301 20.9136 3.69657C20.8566 3.56014 20.7731 3.43638 20.6679 3.33246C20.4561 3.12365 20.1706 3.00659 19.8731 3.00659C19.5757 3.00659 19.2902 3.12365 19.0783 3.33246L12.135 10.2758C12.1175 10.2939 12.0965 10.3084 12.0733 10.3182C12.0501 10.3281 12.0252 10.3332 12 10.3332C11.9748 10.3332 11.9499 10.3281 11.9267 10.3182C11.9035 10.3084 11.8825 10.2939 11.865 10.2758L4.92169 3.33246C4.70984 3.12365 4.42433 3.00659 4.12688 3.00659C3.82942 3.00659 3.54391 3.12365 3.33207 3.33246C3.22687 3.43638 3.14336 3.56014 3.08635 3.69657C3.02935 3.83301 3 3.9794 3 4.12727C3 4.27513 3.02935 4.42153 3.08635 4.55796C3.14336 4.6944 3.22687 4.81816 3.33207 4.92208L10.2754 11.8729C10.2933 11.8898 10.3076 11.9101 10.3174 11.9326C10.3272 11.9552 10.3322 11.9795 10.3322 12.0041C10.3322 12.0287 10.3272 12.0531 10.3174 12.0756C10.3076 12.0982 10.2933 12.1185 10.2754 12.1354L3.33207 19.0787C3.22687 19.1826 3.14336 19.3064 3.08635 19.4428C3.02935 19.5793 3 19.7257 3 19.8735C3 20.0214 3.02935 20.1678 3.08635 20.3042C3.14336 20.4406 3.22687 20.5644 3.33207 20.6683C3.54391 20.8771 3.82942 20.9942 4.12688 20.9942C4.42433 20.9942 4.70984 20.8771 4.92169 20.6683L11.865 13.725C11.8825 13.7068 11.9035 13.6924 11.9267 13.6826C11.9499 13.6727 11.9748 13.6676 12 13.6676C12.0252 13.6676 12.0501 13.6727 12.0733 13.6826C12.0965 13.6924 12.1175 13.7068 12.135 13.725L19.0783 20.6683C19.2902 20.8771 19.5757 20.9942 19.8731 20.9942C20.1706 20.9942 20.4561 20.8771 20.6679 20.6683C20.7731 20.5644 20.8566 20.4406 20.9136 20.3042C20.9706 20.1678 21 20.0214 21 19.8735C21 19.7257 20.9706 19.5793 20.9136 19.4428C20.8566 19.3064 20.7731 19.1826 20.6679 19.0787L13.7246 12.1354Z" fill="white"/>
</svg>
