<svg width="64" height="64" viewBox="0 0 64 64" fill="none" xmlns="http://www.w3.org/2000/svg">
<rect x="2" y="2" width="60" height="60" rx="16" stroke="#CCCCCC" stroke-width="4"/>
<g clip-path="url(#clip0_565_2085)">
<path d="M32 12.4961C20.95 12.4961 12 21.4511 12 32.4961C12 41.3344 17.73 48.8294 25.675 51.4711C26.675 51.6594 27.0417 51.0411 27.0417 50.5094C27.0417 50.0344 27.025 48.7761 27.0167 47.1094C21.4533 48.3161 20.28 44.4261 20.28 44.4261C19.37 42.1178 18.055 41.5011 18.055 41.5011C16.2433 40.2611 18.195 40.2861 18.195 40.2861C20.2033 40.4261 21.2583 42.3461 21.2583 42.3461C23.0417 45.4044 25.94 44.5211 27.0833 44.0094C27.2633 42.7161 27.7783 41.8344 28.35 41.3344C23.9083 40.8344 19.24 39.1144 19.24 31.4511C19.24 29.2678 20.015 27.4844 21.2983 26.0844C21.0733 25.5794 20.3983 23.5461 21.4733 20.7911C21.4733 20.7911 23.1483 20.2544 26.9733 22.8411C28.5733 22.3961 30.2733 22.1761 31.9733 22.1661C33.6733 22.1761 35.3733 22.3961 36.9733 22.8411C40.7733 20.2544 42.4483 20.7911 42.4483 20.7911C43.5233 23.5461 42.8483 25.5794 42.6483 26.0844C43.9233 27.4844 44.6983 29.2678 44.6983 31.4511C44.6983 39.1344 40.0233 40.8261 35.5733 41.3178C36.2733 41.9178 36.9233 43.1444 36.9233 45.0178C36.9233 47.6944 36.8983 49.8444 36.8983 50.4944C36.8983 51.0194 37.2483 51.6444 38.2733 51.4444C46.275 48.8211 52 41.3211 52 32.4961C52 21.4511 43.045 12.4961 32 12.4961Z" fill="#111827"/>
</g>
<defs>
<clipPath id="clip0_565_2085">
<rect width="40" height="40" fill="white" transform="translate(12 12)"/>
</clipPath>
</defs>
</svg>
