<svg width="64" height="64" viewBox="0 0 64 64" fill="none" xmlns="http://www.w3.org/2000/svg">
<rect x="2" y="2" width="60" height="60" rx="16" stroke="#CCCCCC" stroke-width="4"/>
<path d="M31.8984 28.3789V36.0847H42.607C42.1367 38.5629 40.7256 40.6613 38.6093 42.0722L45.0669 47.0828C48.8294 43.6099 51.0001 38.5088 51.0001 32.4491C51.0001 31.0382 50.8735 29.6814 50.6383 28.3791L31.8984 28.3789Z" fill="#4285F4"/>
<path d="M20.7446 35.7852L19.2882 36.9001L14.1328 40.9157C17.4069 47.4095 24.1173 51.8956 31.8954 51.8956C37.2676 51.8956 41.7717 50.1229 45.0639 47.084L38.6063 42.0734C36.8336 43.2673 34.5724 43.9909 31.8954 43.9909C26.7221 43.9909 22.3266 40.4998 20.7528 35.7966L20.7446 35.7852Z" fill="#34A853"/>
<path d="M14.1343 23.082C12.7777 25.7591 12 28.7799 12 31.9997C12 35.2194 12.7777 38.2403 14.1343 40.9173C14.1343 40.9353 20.7549 35.7801 20.7549 35.7801C20.357 34.5863 20.1217 33.3201 20.1217 31.9995C20.1217 30.6788 20.357 29.4127 20.7549 28.2188L14.1343 23.082Z" fill="#FBBC05"/>
<path d="M31.8958 20.0244C34.8262 20.0244 37.431 21.0374 39.5112 22.991L45.2091 17.2931C41.7541 14.0734 37.2683 12.1016 31.8958 12.1016C24.1177 12.1016 17.4069 16.5695 14.1328 23.0815L20.7532 28.2187C22.3268 23.5155 26.7225 20.0244 31.8958 20.0244Z" fill="#EA4335"/>
</svg>
