<svg width="13" height="14" viewBox="0 0 13 14" fill="none" xmlns="http://www.w3.org/2000/svg">
<path d="M11.3053 13.1773V11.8047C11.3053 11.295 11.0967 10.8058 10.7257 10.4454C10.4011 10.1302 9.97507 9.93557 9.52229 9.89182L9.32633 9.88244H3.67367C3.14896 9.88244 2.64534 10.0851 2.27431 10.4454C1.90328 10.8058 1.69469 11.295 1.69469 11.8047V13.1773C1.69469 13.6322 1.31563 14.0004 0.847346 14.0004C0.379065 14.0004 0 13.6322 0 13.1773V11.8047C0 10.8582 0.386002 9.94986 1.07505 9.28056C1.7641 8.61127 2.69921 8.23633 3.67367 8.23633H9.32633C10.3008 8.23633 11.2359 8.61127 11.9249 9.28056C12.614 9.94986 13 10.8582 13 11.8047V13.1773C13 13.6322 12.6209 14.0004 12.1527 14.0004C11.6844 14.0004 11.3053 13.6322 11.3053 13.1773Z" fill="white"/>
<path d="M8.48078 3.56836C8.48078 2.50703 7.59445 1.64611 6.5018 1.64611C5.40914 1.64611 4.52282 2.50703 4.52282 3.56836C4.52282 4.6297 5.40914 5.49062 6.5018 5.49062C7.59445 5.49062 8.48078 4.6297 8.48078 3.56836ZM10.1755 3.56836C10.1755 5.53941 8.53102 7.13673 6.5018 7.13673C4.47258 7.13673 2.82812 5.53941 2.82812 3.56836C2.82812 1.59732 4.47258 0 6.5018 0C8.53102 0 10.1755 1.59732 10.1755 3.56836Z" fill="white"/>
</svg>
