<svg width="11" height="11" viewBox="0 0 11 11" fill="none" xmlns="http://www.w3.org/2000/svg">
<path d="M8.71398 0.185613C8.94278 -0.0540915 9.32291 -0.0627168 9.56261 0.166081C9.802 0.394884 9.81077 0.774127 9.58214 1.01374L9.07336 1.54596L10.0333 2.55085C10.2546 2.7827 10.2546 3.14712 10.0333 3.37897L8.45324 5.03522C8.34011 5.15364 8.18342 5.22069 8.01964 5.22077C7.85568 5.22077 7.69829 5.15383 7.58507 5.03522L6.66418 4.0694L5.60265 5.18171C5.72438 5.36516 5.82864 5.56069 5.91125 5.76667C6.06653 6.15392 6.14721 6.56889 6.14855 6.98737C6.14987 7.40574 6.07179 7.82085 5.91906 8.20905C5.76626 8.59735 5.5411 8.95226 5.255 9.25202C4.96881 9.55185 4.62708 9.79093 4.24914 9.95417C3.87111 10.1174 3.46449 10.2007 3.05382 10.1993C2.64337 10.1978 2.23818 10.1112 1.86144 9.94538C1.48463 9.77953 1.14466 9.53814 0.860465 9.23639L0.855582 9.23151C0.297583 8.62608 -0.0067373 7.82097 0.000113188 6.9903C0.00700384 6.15954 0.32437 5.35927 0.892691 4.76374C1.46193 4.16736 2.23834 3.82401 3.05578 3.81647C3.66573 3.81092 4.25649 3.99267 4.75793 4.32917L8.71398 0.185613ZM3.0675 5.01569C2.58278 5.0201 2.11243 5.22356 1.76086 5.59186C1.40841 5.9611 1.20376 6.46656 1.19933 7.00007C1.19491 7.53307 1.3915 8.04125 1.73742 8.41706C1.91257 8.6021 2.1192 8.74841 2.34484 8.84772C2.57173 8.94752 2.81446 8.99921 3.05871 9.00007C3.30301 9.00089 3.54604 8.95087 3.77355 8.8526C4.00115 8.75428 4.20987 8.60832 4.38683 8.42292C4.56377 8.23747 4.70506 8.01563 4.80187 7.7696C4.89872 7.52347 4.94918 7.259 4.94836 6.99128C4.9475 6.72347 4.89542 6.45842 4.79699 6.21296C4.69937 5.96972 4.55802 5.75062 4.38195 5.56745C4.02504 5.20638 3.55239 5.0114 3.0675 5.01569ZM7.49328 3.20026L8.01867 3.75104L8.76964 2.96491L8.24425 2.41413L7.49328 3.20026Z" fill="#111827"/>
</svg>
