<svg width="14" height="14" viewBox="0 0 14 14" fill="none" xmlns="http://www.w3.org/2000/svg">
<path d="M11.9612 0.25478C12.2753 -0.0742484 12.797 -0.0860877 13.1261 0.22797C13.4547 0.542035 13.4667 1.0626 13.1529 1.3915L12.4545 2.12206L13.7722 3.5014C14.0759 3.81965 14.0759 4.31987 13.7722 4.63812L11.6033 6.91156C11.448 7.07411 11.2329 7.16614 11.0081 7.16625C10.783 7.16625 10.567 7.07437 10.4116 6.91156L9.14754 5.58584L7.69045 7.11263C7.85754 7.36445 8.00065 7.63284 8.11404 7.91558C8.32719 8.44714 8.43793 9.01674 8.43977 9.59116C8.44158 10.1654 8.33441 10.7352 8.12476 11.2681C7.91503 11.8011 7.60596 12.2883 7.21324 12.6997C6.82041 13.1113 6.35133 13.4394 5.83255 13.6635C5.31366 13.8876 4.75551 14.002 4.19181 14C3.62841 13.9979 3.07223 13.879 2.5551 13.6515C2.03787 13.4238 1.57122 13.0925 1.18111 12.6783L1.17441 12.6716C0.408476 11.8405 -0.00924792 10.7354 0.000155367 9.59519C0.00961378 8.45485 0.445245 7.35636 1.22535 6.53891C2.00671 5.7203 3.07245 5.249 4.19449 5.23865C5.03174 5.23103 5.84264 5.48052 6.53094 5.9424L11.9612 0.25478ZM4.21058 6.88475C3.54524 6.89081 2.89961 7.17008 2.41703 7.67563C1.93325 8.18247 1.65234 8.87628 1.64626 9.60859C1.64019 10.3402 1.91003 11.0378 2.38486 11.5536C2.62528 11.8076 2.9089 12.0084 3.21863 12.1448C3.53007 12.2817 3.86325 12.3527 4.19852 12.3539C4.53386 12.355 4.86745 12.2863 5.17974 12.1515C5.49216 12.0165 5.77865 11.8161 6.02156 11.5617C6.26443 11.3071 6.45837 11.0026 6.59126 10.6649C6.72419 10.327 6.79347 9.96401 6.79233 9.59653C6.79115 9.22892 6.71967 8.86511 6.58456 8.52817C6.45057 8.19429 6.25654 7.89355 6.01486 7.64212C5.52495 7.14651 4.87617 6.87886 4.21058 6.88475ZM10.2856 4.39282L11.0068 5.14884L12.0376 4.06976L11.3164 3.31374L10.2856 4.39282Z" fill="white"/>
</svg>
