<svg width="10" height="11" viewBox="0 0 10 11" fill="none" xmlns="http://www.w3.org/2000/svg">
<path d="M8 9.59961V8.59961C8 8.22831 7.8524 7.87193 7.58984 7.60938C7.36017 7.3797 7.05868 7.23793 6.73828 7.20605L6.59961 7.19922H2.59961C2.22831 7.19922 1.87193 7.34682 1.60938 7.60938C1.34682 7.87193 1.19922 8.22831 1.19922 8.59961V9.59961C1.19922 9.93098 0.93098 10.1992 0.599609 10.1992C0.268239 10.1992 0 9.93098 0 9.59961V8.59961C0 7.91005 0.273148 7.24834 0.760742 6.76074C1.24834 6.27315 1.91005 6 2.59961 6H6.59961C7.28917 6 7.95088 6.27315 8.43848 6.76074C8.92607 7.24834 9.19922 7.91005 9.19922 8.59961V9.59961C9.19922 9.93098 8.93098 10.1992 8.59961 10.1992C8.26824 10.1992 8 9.93098 8 9.59961Z" fill="#111827"/>
<path d="M6 2.59961C6 1.82641 5.37281 1.19922 4.59961 1.19922C3.82641 1.19922 3.19922 1.82641 3.19922 2.59961C3.19922 3.37281 3.82641 4 4.59961 4C5.37281 4 6 3.37281 6 2.59961ZM7.19922 2.59961C7.19922 4.03555 6.03555 5.19922 4.59961 5.19922C3.16367 5.19922 2 4.03555 2 2.59961C2 1.16367 3.16367 0 4.59961 0C6.03555 0 7.19922 1.16367 7.19922 2.59961Z" fill="#111827"/>
</svg>
