<svg width="64" height="64" viewBox="0 0 64 64" fill="none" xmlns="http://www.w3.org/2000/svg">
<rect x="2" y="2" width="60" height="60" rx="16" stroke="#CCCCCC" stroke-width="4"/>
<path d="M12.0781 32C12.0781 20.954 21.0301 12 32.0781 12C43.1221 12 52.0781 20.954 52.0781 32C52.0781 43.046 43.1221 52 32.0781 52C21.0301 52 12.0781 43.046 12.0781 32Z" fill="#FC3F1D"/>
<path d="M34.6405 23.3331H32.7925C29.4045 23.3331 27.6225 25.0491 27.6225 27.5791C27.6225 30.4391 28.8545 31.7791 31.3845 33.4971L33.4745 34.9051L27.4685 43.8791H22.9805L28.3705 35.8511C25.2705 33.6291 23.5305 31.4711 23.5305 27.8211C23.5305 23.2451 26.7205 20.1211 32.7705 20.1211H38.7765V43.8571H34.6405V23.3331Z" fill="white"/>
</svg>
